<svg xmlns="http://www.w3.org/2000/svg" viewBox="0 0 192 192">
  <path fill="currentColor" d="M141.537 88.988a66.667 66.667 0 0 0-2.518-1.143c-1.482-27.307-16.403-42.94-41.457-43.1h-.34c-14.986 0-27.449 6.396-35.12 18.037l13.779 9.452c5.73-8.695 14.717-10.816 21.348-10.816h.229c7.67.081 13.861 2.544 17.916 7.146 3.353 3.81 5.583 9.139 6.666 15.926a73 73 0 0 0-6.597-1.018c-11.567-1.376-21.536-.962-28.85 1.191-9.617 2.832-17.092 8.639-21.645 16.828-3.688 6.636-4.918 14.415-3.557 22.495 1.45 8.622 5.798 16.286 12.229 21.563 6.235 5.117 14.272 7.708 23.251 7.708h.052c14.86 0 27.032-7.442 32.24-19.745 2.455-5.798 3.717-12.534 3.743-20.036v-1.21c4.699 2.732 8.476 6.22 11.154 10.343 4.201 6.467 5.987 14.371 5.309 23.498-.69 9.288-4.04 17.827-9.439 24.04-5.395 6.208-12.523 10.12-20.635 11.328a42 42 0 0 1-7.397.665c-15.818 0-30.241-9.801-39.462-26.82l-14.854 7.67c11.544 21.34 30.656 34.188 52.59 34.188 2.98 0 5.96-.242 8.892-.728 10.766-1.79 20.447-7.175 28.043-15.593 7.593-8.424 12.223-19.633 13.043-31.575.964-13.984-2.043-25.866-8.936-35.313-4.201-5.757-9.63-10.477-16.123-14.018zm-27.688 40.586c-2.233 5.274-7.087 8.458-13.394 8.796h-.379c-4.646 0-8.542-1.494-11.253-4.318-2.668-2.775-4.114-6.528-4.69-10.854-.577-4.336.086-8.411 1.92-11.799 2.378-4.389 6.448-7.652 11.785-9.447 2.966-.997 6.444-1.497 10.329-1.497 2.37 0 4.847.175 7.388.519v1.668c-.02 6.215-.892 11.626-2.706 16.932"/>
</svg>
